<svg xmlns="http://www.w3.org/2000/svg" viewBox="0 0 200 200" width="200" height="200">
  <!-- Clouds -->
  <path d="M 50 120 
           A 20 20 0 0 1 80 100 
           A 25 25 0 0 1 125 100 
           A 20 20 0 0 1 150 120 
           A 15 15 0 0 1 135 135 
           L 65 135 
           A 15 15 0 0 1 50 120 Z" 
        fill="#EAD8FF" opacity="0.8" />
  
  <!-- Star sparkles -->
  <path d="M 100 40 Q 100 55 115 55 Q 100 55 100 70 Q 100 55 85 55 Q 100 55 100 40 Z" fill="#FFE385" />
  <path d="M 60 50 Q 60 58 68 58 Q 60 58 60 66 Q 60 58 52 58 Q 60 58 60 50 Z" fill="#FFE385" transform="scale(0.7) translate(30, 20)" />
  <path d="M 140 60 Q 140 68 148 68 Q 140 68 140 76 Q 140 68 132 68 Q 140 68 140 60 Z" fill="#FFE385" transform="scale(0.6) translate(100, 30)" />
</svg>
