<svg xmlns="http://www.w3.org/2000/svg" viewBox="0 0 200 200" width="200" height="200">
  <!-- Photo 1 rotated -->
  <g transform="rotate(-10 100 100)">
    <rect x="50" y="30" width="100" height="120" rx="3" fill="#FFFFFF" filter="drop-shadow(0 2px 4px rgba(0,0,0,0.05))" />
    <rect x="58" y="38" width="84" height="84" fill="#E8C39E" />
  </g>
  <!-- Photo 2 rotated positive -->
  <g transform="rotate(8 100 100)">
    <rect x="60" y="40" width="100" height="120" rx="3" fill="#FFFFFF" filter="drop-shadow(0 2px 4px rgba(0,0,0,0.05))" />
    <rect x="68" y="48" width="84" height="84" fill="#FFD6E3" />
    <!-- Heart icon in photo -->
    <path d="M 110 90 C 105 85, 95 75, 95 65 C 95 57, 101 51, 108 51 C 112 51, 115 54, 117 57 C 119 54, 122 51, 126 51 C 133 51, 139 57, 139 65 C 139 75, 129 85, 124 90 Z" fill="#F27FA6" transform="scale(0.3) translate(220, 100)" />
  </g>
</svg>
