<svg xmlns="http://www.w3.org/2000/svg" viewBox="0 0 100 100" width="100" height="100">
  <!-- Left loop -->
  <path d="M 50 50 C 35 30, 15 35, 25 50 C 30 58, 45 55, 50 50 Z" fill="#DCC7FF" stroke="#C5B0FF" stroke-width="2"/>
  <!-- Right loop -->
  <path d="M 50 50 C 65 30, 85 35, 75 50 C 70 58, 55 55, 50 50 Z" fill="#DCC7FF" stroke="#C5B0FF" stroke-width="2"/>
  <!-- Left Ribbon Tail -->
  <path d="M 46 52 C 40 65, 30 75, 20 80 C 25 75, 35 65, 42 56 Z" fill="#DCC7FF"/>
  <!-- Right Ribbon Tail -->
  <path d="M 54 52 C 60 65, 70 75, 80 80 C 75 75, 65 65, 58 56 Z" fill="#DCC7FF"/>
  <!-- Center Knot -->
  <circle cx="50" cy="50" r="7" fill="#EAD8FF" stroke="#C5B0FF" stroke-width="2" />
</svg>
